# xmcd
#
# Track frame offsets:
#	150
#	14028
#	28755
#	38943
#	49320
#	69195
#	85353
#	100678
#	114700
#	133203
#	148120
#	164963
#	177868
#	193570
#	209535
#	227043
#	240390
#	253968
#	270438
#	282970
#
# Disc length: 3933 seconds
#
# Revision: 1
# Processed by: cddbd v1.5PL3 Copyright (c) Steve Scherf et al.
# Submitted via: CDex 1.50Beta5
#
DISCID=320f5b14
DTITLE=Various Artist - 青春ポップス・ストリート09
DYEAR=1900
DGENRE=Pop
TTITLE0=いしだあゆみ/ブルー・ライト・ヨコハマ
TTITLE1=弘田三枝子/人形の家
TTITLE2=ヒデとロザンナ/愛の奇跡
TTITLE3=青い三角定規/太陽がくれた季節
TTITLE4=平山三紀/真夏の出来事
TTITLE5=ちあきなおみ/喝采
TTITLE6=黒沢年男/時には娼婦のように
TTITLE7=松坂慶子/愛の水中花
TTITLE8=佐川満男/今は幸せかい
TTITLE9=ヒデとロザンナ/愛は傷つきやすく
TTITLE10=内藤やす子/弟よ
TTITLE11=辺見マリ/経験
TTITLE12=ちあきなおみ/四つのお願い
TTITLE13=内藤やす子/想い出ぼろぼろ
TTITLE14=黒沢年男/やすらぎ
TTITLE15=森山加代子/白い蝶のサンバ
TTITLE16=いしだあゆみ/あなたならどうする
TTITLE17=ちあきなおみ/雨に濡れた慕情
TTITLE18=ジャッキー吉川とブルー・コメッツ/ブルー・シャトウ
TTITLE19=美空ひばり、ジャッキー吉川とブルー・コメッツ/真赤な太陽
EXTD=
EXTT0=
EXTT1=
EXTT2=
EXTT3=
EXTT4=
EXTT5=
EXTT6=
EXTT7=
EXTT8=
EXTT9=
EXTT10=
EXTT11=
EXTT12=
EXTT13=
EXTT14=
EXTT15=
EXTT16=
EXTT17=
EXTT18=
EXTT19=
PLAYORDER=
